<svg width="169" height="86" viewBox="0 0 169 86" fill="none" xmlns="http://www.w3.org/2000/svg">
<path d="M30.6497 85.0117C24.9197 85.0117 19.8197 84.0417 15.3397 82.0917C10.8597 80.1517 7.28969 77.2817 4.64969 73.5017C1.99969 69.7217 0.679688 65.1317 0.679688 59.7317C0.679688 54.3317 1.99969 49.7917 4.64969 46.1217C7.29969 42.4517 10.9097 39.7217 15.5097 37.9417C20.0997 36.1617 25.3097 35.2717 31.1497 35.2717H55.6197V30.0817C55.6197 25.3317 54.1897 21.5217 51.3297 18.6617C48.4697 15.8017 44.1197 14.3717 38.2897 14.3717C32.4597 14.3717 28.1597 15.7217 25.0797 18.4217C21.9997 21.1217 19.9797 24.6917 18.9997 29.1217L3.60968 24.1017C4.90968 19.8917 6.9797 16.0017 9.8497 12.4317C12.7097 8.86172 16.5197 6.03172 21.2697 3.92172C26.0197 1.81172 31.7497 0.761719 38.4497 0.761719C48.8197 0.761719 56.9797 3.38172 62.9197 8.62172C68.8597 13.8617 71.8297 21.3417 71.8297 31.0617V64.1217C71.8297 67.3617 73.3397 68.9817 76.3697 68.9817H83.1797V82.7517H70.6997C67.0297 82.7517 63.9997 81.7817 61.6297 79.8317C59.2497 77.8917 58.0597 75.2417 58.0597 71.8917V71.4017H55.4697C54.7097 73.0217 53.4397 74.9117 51.6597 77.0717C49.8797 79.2317 47.3097 81.1017 43.9597 82.6617C40.6097 84.2217 36.1797 85.0117 30.6697 85.0117H30.6497ZM33.0797 71.2317C39.7797 71.2317 45.1997 69.3117 49.3597 65.4817C53.5197 61.6517 55.5997 56.3817 55.5997 49.6817V47.9017H32.0997C27.6697 47.9017 24.0797 48.8717 21.3197 50.8217C18.5697 52.7617 17.1897 55.5717 17.1897 59.2417C17.1897 62.9117 18.6197 65.8317 21.4797 67.9917C24.3397 70.1517 28.1997 71.2317 33.0697 71.2317H33.0797Z" fill="white"/>
<path d="M116.039 85.0117C110.309 85.0117 105.209 84.0417 100.729 82.0917C96.2493 80.1517 92.6793 77.2817 90.0393 73.5017C87.3893 69.7217 86.0693 65.1317 86.0693 59.7317C86.0693 54.3317 87.3893 49.7917 90.0393 46.1217C92.6893 42.4517 96.2994 39.7217 100.899 37.9417C105.489 36.1617 110.699 35.2717 116.539 35.2717H141.009V30.0817C141.009 25.3317 139.579 21.5217 136.719 18.6617C133.859 15.8017 129.509 14.3717 123.679 14.3717C117.849 14.3717 113.549 15.7217 110.469 18.4217C107.389 21.1217 105.369 24.6917 104.389 29.1217L88.9993 24.1017C90.2993 19.8917 92.3693 16.0017 95.2393 12.4317C98.0993 8.86172 101.909 6.03172 106.659 3.92172C111.409 1.81172 117.139 0.761719 123.839 0.761719C134.209 0.761719 142.369 3.38172 148.309 8.62172C154.249 13.8617 157.219 21.3417 157.219 31.0617V64.1217C157.219 67.3617 158.729 68.9817 161.759 68.9817H168.569V82.7517H156.089C152.419 82.7517 149.389 81.7817 147.019 79.8317C144.639 77.8917 143.449 75.2417 143.449 71.8917V71.4017H140.859C140.099 73.0217 138.829 74.9117 137.049 77.0717C135.269 79.2317 132.699 81.1017 129.349 82.6617C125.999 84.2217 121.569 85.0117 116.059 85.0117H116.039ZM118.469 71.2317C125.169 71.2317 130.589 69.3117 134.749 65.4817C138.909 61.6517 140.989 56.3817 140.989 49.6817V47.9017H117.489C113.059 47.9017 109.469 48.8717 106.709 50.8217C103.959 52.7617 102.579 55.5717 102.579 59.2417C102.579 62.9117 104.009 65.8317 106.869 67.9917C109.729 70.1517 113.589 71.2317 118.459 71.2317H118.469Z" fill="white"/>
</svg>
