<svg width="77" height="114" viewBox="0 0 77 114" fill="none" xmlns="http://www.w3.org/2000/svg">
<path d="M10.5205 113.099V98.5188H55.0805C58.2105 98.5188 59.7805 96.8988 59.7805 93.6588V69.0287H57.1905C56.2205 71.1888 54.7005 73.2687 52.6505 75.2687C50.6005 77.2687 47.8905 78.9187 44.5505 80.2087C41.2005 81.5088 36.9905 82.1488 31.9105 82.1488C25.8605 82.1488 20.4605 80.7987 15.7105 78.0987C10.9605 75.3988 7.23047 71.5687 4.53047 66.5987C1.83047 61.6287 0.480469 55.7388 0.480469 48.9388V0.978748H17.0105V47.6488C17.0105 54.6688 18.7605 59.8288 22.2805 63.1188C25.7905 66.4188 30.5705 68.0587 36.6205 68.0587C43.6405 68.0587 49.2305 65.7687 53.3905 61.1687C57.5505 56.5787 59.6305 49.9587 59.6305 41.3187V0.96875H76.1605V97.0587C76.1605 102.029 74.7305 105.939 71.8705 108.809C69.0105 111.669 65.0905 113.099 60.1205 113.099H10.5405H10.5205Z" fill="white"/>
</svg>
