<svg width="84" height="85" viewBox="0 0 84 85" fill="none" xmlns="http://www.w3.org/2000/svg">
<path d="M30.7903 84.9609C25.0603 84.9609 19.9603 83.9909 15.4803 82.0409C11.0003 80.1009 7.4303 77.2309 4.7903 73.4509C2.1403 69.6709 0.820312 65.0809 0.820312 59.6809C0.820312 54.2809 2.1403 49.7409 4.7903 46.0709C7.4403 42.4009 11.0503 39.6709 15.6503 37.8909C20.2403 36.1109 25.4503 35.2209 31.2903 35.2209H55.7603V30.0309C55.7603 25.2809 54.3303 21.4709 51.4703 18.6109C48.6103 15.7509 44.2603 14.3209 38.4303 14.3209C32.6003 14.3209 28.3003 15.6709 25.2203 18.3709C22.1403 21.0709 20.1203 24.6409 19.1403 29.0709L3.75031 24.0509C5.05031 19.8409 7.12031 15.9509 9.99031 12.3809C12.8503 8.81094 16.6603 5.98094 21.4103 3.87094C26.1603 1.76094 31.8903 0.710938 38.5903 0.710938C48.9603 0.710938 57.1203 3.33094 63.0603 8.57094C69.0003 13.8109 71.9703 21.2909 71.9703 31.0109V64.0709C71.9703 67.3109 73.4803 68.9309 76.5103 68.9309H83.3203V82.7009H70.8403C67.1703 82.7009 64.1403 81.7309 61.7703 79.7809C59.3903 77.8409 58.2003 75.1909 58.2003 71.8409V71.3509H55.6103C54.8503 72.9709 53.5803 74.8609 51.8003 77.0209C50.0203 79.1809 47.4503 81.0509 44.1003 82.6109C40.7503 84.1709 36.3203 84.9609 30.8103 84.9609H30.7903ZM33.2203 71.1909C39.9203 71.1909 45.3403 69.2709 49.5003 65.4409C53.6603 61.6109 55.7403 56.3409 55.7403 49.6409V47.8609H32.2403C27.8103 47.8609 24.2203 48.8309 21.4603 50.7809C18.7103 52.7209 17.3303 55.5309 17.3303 59.2009C17.3303 62.8709 18.7603 65.7909 21.6203 67.9509C24.4803 70.1109 28.3403 71.1909 33.2103 71.1909H33.2203Z" fill="white"/>
</svg>
