<svg width="122" height="113" viewBox="0 0 122 113" fill="none" xmlns="http://www.w3.org/2000/svg">
<path d="M86.3799 112.529H0.589844L25.9398 61.8389C13.6698 57.5889 4.82983 45.9189 4.82983 32.2189C4.82983 14.9389 18.8899 0.878906 36.1699 0.878906H121.96L96.6098 51.5689C108.88 55.8189 117.72 67.4889 117.72 81.1989C117.72 98.4789 103.66 112.539 86.3799 112.539V112.529ZM22.7599 98.8289H86.3799C96.1098 98.8289 104.02 90.9189 104.02 81.1889C104.02 71.4589 96.1098 63.5489 86.3799 63.5489H75.2998L99.7899 14.5689H36.1699C26.4399 14.5689 18.5298 22.4789 18.5298 32.2089C18.5298 41.9389 26.4399 49.8489 36.1699 49.8489H47.2498L22.7599 98.8289Z" fill="white"/>
</svg>
