<svg width="86" height="118" viewBox="0 0 86 118" fill="none" xmlns="http://www.w3.org/2000/svg">
<path d="M43.7498 117.958C35.2198 117.958 27.6798 116.448 21.1498 113.418C14.6098 110.398 9.45977 105.938 5.67977 100.048C1.89977 94.1583 0.00976562 87.0083 0.00976562 78.5783V74.5283H17.1898V78.5783C17.1898 86.6783 19.6198 92.7283 24.4798 96.7283C29.3398 100.728 35.7698 102.728 43.7598 102.728C51.7498 102.728 57.9898 100.998 62.1498 97.5383C66.3098 94.0783 68.3898 89.6583 68.3898 84.2483C68.3898 80.6783 67.4198 77.7683 65.4698 75.4983C63.5298 73.2283 60.7398 71.3983 57.1298 69.9883C53.5098 68.5883 49.2198 67.3383 44.2498 66.2583L38.0898 64.7983C30.9598 63.0683 24.7498 60.9083 19.4598 58.3183C14.1698 55.7283 10.0598 52.3483 7.14977 48.1883C4.22977 44.0283 2.76977 38.5983 2.76977 31.9083C2.76977 25.2183 4.38977 19.6483 7.62977 14.8983C10.8698 10.1483 15.4098 6.46828 21.2398 3.87828C27.0698 1.28828 33.9298 -0.0117188 41.8198 -0.0117188C49.7098 -0.0117188 56.7498 1.33828 62.9698 4.03828C69.1798 6.73828 74.0698 10.7383 77.6298 16.0283C81.1898 21.3183 82.9798 27.9683 82.9798 35.9583V41.7883H65.7998V35.9583C65.7998 30.9883 64.7998 26.9983 62.7998 23.9683C60.7998 20.9483 57.9898 18.7283 54.3698 17.3283C50.7498 15.9283 46.5698 15.2183 41.8098 15.2183C34.7898 15.2183 29.3898 16.6483 25.6098 19.5083C21.8298 22.3683 19.9398 26.3983 19.9398 31.5783C19.9398 35.0383 20.7798 37.8683 22.4498 40.0883C24.1198 42.2983 26.5798 44.1183 29.8198 45.5183C33.0598 46.9183 37.0598 48.1683 41.8098 49.2483L47.9698 50.7083C55.3098 52.3283 61.7998 54.4083 67.4098 56.9483C73.0298 59.4883 77.4598 62.9183 80.6998 67.2383C83.9398 71.5583 85.5598 77.1283 85.5598 83.9283C85.5598 90.7283 83.8298 96.6783 80.3698 101.748C76.9098 106.828 72.0798 110.798 65.8698 113.658C59.6598 116.518 52.2798 117.948 43.7498 117.948V117.958Z" fill="white"/>
</svg>
