<svg width="49" height="12" viewBox="0 0 49 12" fill="none" xmlns="http://www.w3.org/2000/svg">
<g clip-path="url(#clip0_3004_24685)">
<path d="M3.44374 9.55868C2.77235 9.55868 2.17888 9.43633 1.6649 9.19082C1.15014 8.94612 0.744784 8.58474 0.447261 8.10749C0.149738 7.63025 0.000976562 7.05091 0.000976562 6.36786V6.0397H1.35321V6.36786C1.35321 7.02417 1.54448 7.51438 1.92701 7.83849C2.30954 8.16259 2.81564 8.32465 3.44453 8.32465C4.07342 8.32465 4.56457 8.18447 4.892 7.90412C5.21944 7.62377 5.38315 7.26563 5.38315 6.82728C5.38315 6.53801 5.3068 6.30223 5.15332 6.1183C5.00062 5.93437 4.78102 5.78609 4.49688 5.67184C4.21195 5.55841 3.87429 5.45712 3.4831 5.36961L2.99825 5.25132C2.43705 5.11114 1.94826 4.93612 1.53188 4.72627C1.11551 4.51641 0.79201 4.24254 0.562965 3.90547C0.333132 3.5684 0.218216 3.12843 0.218216 2.58636C0.218216 2.04429 0.345726 1.59298 0.600745 1.2081C0.855765 0.823227 1.21311 0.525051 1.67199 0.315192C2.13086 0.105334 2.67081 0 3.29183 0C3.91285 0 4.46697 0.109386 4.95655 0.328157C5.44533 0.546928 5.83022 0.871033 6.11043 1.29966C6.39064 1.72829 6.53153 2.26712 6.53153 2.91452V3.3869H5.17929V2.91452C5.17929 2.51182 5.10058 2.18852 4.94317 1.94301C4.78575 1.69831 4.56457 1.51843 4.27964 1.405C3.99471 1.29156 3.66571 1.23403 3.29105 1.23403C2.7385 1.23403 2.31347 1.3499 2.01595 1.58163C1.71842 1.81337 1.56966 2.13991 1.56966 2.55962C1.56966 2.83997 1.63578 3.06928 1.76722 3.24916C1.89867 3.42822 2.0923 3.57569 2.34732 3.68913C2.60234 3.80257 2.91718 3.90385 3.29105 3.99136L3.7759 4.10965C4.35363 4.24092 4.86446 4.40945 5.30602 4.61526C5.74837 4.82107 6.09705 5.09899 6.35207 5.44902C6.60709 5.79905 6.7346 6.25037 6.7346 6.80135C6.7346 7.35233 6.59843 7.83444 6.3261 8.24524C6.05376 8.65685 5.67359 8.97853 5.1848 9.21026C4.69602 9.442 4.11514 9.55787 3.44374 9.55787V9.55868Z" fill="white"/>
<path d="M9.02568 4.03238V7.85277C9.02568 8.11529 9.14847 8.24656 9.39562 8.24656H10.6959V9.37606H8.97373C8.5912 9.37606 8.28738 9.26019 8.06227 9.02765C7.83716 8.79672 7.72461 8.47829 7.72461 8.0764V0.75H9.02568V2.91583H10.9131V4.03157H9.02568V4.03238Z" fill="white"/>
<path d="M13.7574 9.55694C13.3064 9.55694 12.9049 9.47834 12.5523 9.32034C12.1997 9.16315 11.9187 8.9306 11.7109 8.62432C11.5023 8.31804 11.3984 7.94613 11.3984 7.50859C11.3984 7.07105 11.5023 6.70319 11.7109 6.40582C11.9195 6.10846 12.2036 5.88725 12.5657 5.74303C12.927 5.5988 13.3371 5.52669 13.7967 5.52669H15.7228V5.10616C15.7228 4.72129 15.6102 4.41258 15.3851 4.18084C15.16 3.9491 14.8176 3.83324 14.3587 3.83324C13.8998 3.83324 13.5614 3.94262 13.319 4.16139C13.0765 4.38016 12.9175 4.66943 12.8404 5.02838L11.6291 4.62162C11.7314 4.2805 11.8943 3.96531 12.1202 3.67605C12.3453 3.38678 12.6452 3.15748 13.0191 2.98651C13.3929 2.81555 13.844 2.73047 14.3713 2.73047C15.1875 2.73047 15.8298 2.94276 16.2973 3.36734C16.7649 3.79191 16.9986 4.39799 16.9986 5.18557V7.8643C16.9986 8.12682 17.1175 8.25808 17.356 8.25808H17.892V9.37382H16.9097C16.6208 9.37382 16.3823 9.29522 16.1958 9.13722C16.0085 8.98003 15.9148 8.76531 15.9148 8.49387V8.45417H15.7109C15.6511 8.58543 15.5512 8.73857 15.4111 8.91359C15.271 9.0886 15.0687 9.24012 14.805 9.36652C14.5413 9.49293 14.1926 9.55694 13.7589 9.55694H13.7574ZM13.9486 8.4412C14.476 8.4412 14.9026 8.28563 15.23 7.9753C15.5575 7.66497 15.7212 7.23796 15.7212 6.69509V6.55086H13.8715C13.5228 6.55086 13.2402 6.62946 13.023 6.78746C12.8066 6.94465 12.6979 7.17233 12.6979 7.4697C12.6979 7.76707 12.8105 8.00366 13.0356 8.17868C13.2607 8.3537 13.5645 8.4412 13.9478 8.4412H13.9486Z" fill="white"/>
<path d="M19.0891 11.9995V10.8182H22.5964C22.8427 10.8182 22.9663 10.6869 22.9663 10.4244V8.42871H22.7625C22.6861 8.60373 22.5665 8.77227 22.4051 8.93432C22.2438 9.09637 22.0305 9.23007 21.7676 9.33459C21.5039 9.43992 21.1725 9.49178 20.7727 9.49178C20.2965 9.49178 19.8715 9.38239 19.4976 9.16362C19.1237 8.94485 18.8301 8.63452 18.6176 8.23182C18.4051 7.82912 18.2988 7.35188 18.2988 6.8009V2.91487H19.5999V6.69637C19.5999 7.26518 19.7376 7.68327 20.0147 7.94985C20.291 8.21724 20.6672 8.35012 21.1434 8.35012C21.6959 8.35012 22.1359 8.16457 22.4634 7.79185C22.7908 7.41994 22.9545 6.88354 22.9545 6.18348V2.91406H24.2556V10.6999C24.2556 11.1026 24.143 11.4194 23.9179 11.6519C23.6928 11.8837 23.3843 11.9995 22.9931 11.9995H19.0906H19.0891Z" fill="white"/>
<path d="M38.147 9.40069C37.696 9.40069 37.2946 9.32209 36.942 9.16409C36.5894 9.0069 36.3084 8.77435 36.1006 8.46807C35.892 8.16179 35.7881 7.78988 35.7881 7.35234C35.7881 6.9148 35.892 6.54694 36.1006 6.24957C36.3091 5.95221 36.5933 5.731 36.9554 5.58678C37.3166 5.44255 37.7267 5.37044 38.1864 5.37044H40.1124V4.94991C40.1124 4.56504 39.9998 4.25633 39.7747 4.02459C39.5496 3.79285 39.2072 3.67699 38.7484 3.67699C38.2895 3.67699 37.951 3.78637 37.7086 4.00514C37.4662 4.22391 37.3072 4.51318 37.2301 4.87213L36.0187 4.46537C36.121 4.12425 36.284 3.80906 36.5099 3.5198C36.735 3.23053 37.0348 3.00123 37.4087 2.83026C37.7826 2.6593 38.2336 2.57422 38.761 2.57422C39.5772 2.57422 40.2194 2.78651 40.687 3.21109C41.1545 3.63566 41.3883 4.24174 41.3883 5.02932V7.70805C41.3883 7.97057 41.5071 8.10183 41.7456 8.10183H42.2816V9.21757H41.2993C41.0105 9.21757 40.772 9.13897 40.5854 8.98097C40.3981 8.82378 40.3045 8.60906 40.3045 8.33762V8.29792H40.1006C40.0408 8.42918 39.9408 8.58232 39.8007 8.75734C39.6606 8.93235 39.4583 9.08387 39.1946 9.21027C38.931 9.33668 38.5823 9.40069 38.1486 9.40069H38.147ZM38.3383 8.28414C38.8656 8.28414 39.2922 8.12857 39.6197 7.81824C39.9471 7.50791 40.1108 7.0809 40.1108 6.53803V6.3938H38.2611C37.9125 6.3938 37.6299 6.47239 37.4127 6.6304C37.1962 6.78759 37.0876 7.01527 37.0876 7.31264C37.0876 7.61 37.2001 7.8466 37.4253 8.02162C37.6504 8.19663 37.9542 8.28414 38.3375 8.28414H38.3383Z" fill="white"/>
<path d="M44.8677 9.40069C44.4167 9.40069 44.0153 9.32209 43.6627 9.16409C43.3101 9.0069 43.0291 8.77435 42.8213 8.46807C42.6127 8.16179 42.5088 7.78988 42.5088 7.35234C42.5088 6.9148 42.6127 6.54694 42.8213 6.24957C43.0298 5.95221 43.314 5.731 43.6761 5.58678C44.0373 5.44255 44.4474 5.37044 44.9071 5.37044H46.8331V4.94991C46.8331 4.56504 46.7205 4.25633 46.4954 4.02459C46.2703 3.79285 45.9279 3.67699 45.4691 3.67699C45.0102 3.67699 44.6717 3.78637 44.4293 4.00514C44.1869 4.22391 44.0279 4.51318 43.9508 4.87213L42.7394 4.46537C42.8417 4.12425 43.0047 3.80906 43.2306 3.5198C43.4557 3.23053 43.7555 3.00123 44.1294 2.83026C44.5033 2.6593 44.9543 2.57422 45.4817 2.57422C46.2979 2.57422 46.9402 2.78651 47.4077 3.21109C47.8752 3.63566 48.109 4.24174 48.109 5.02932V7.70805C48.109 7.97057 48.2278 8.10183 48.4663 8.10183H49.0023V9.21757H48.0201C47.7312 9.21757 47.4927 9.13897 47.3062 8.98097C47.1188 8.82378 47.0252 8.60906 47.0252 8.33762V8.29792H46.8213C46.7615 8.42918 46.6615 8.58232 46.5214 8.75734C46.3813 8.93235 46.179 9.08387 45.9153 9.21027C45.6517 9.33668 45.303 9.40069 44.8693 9.40069H44.8677ZM45.059 8.28414C45.5863 8.28414 46.0129 8.12857 46.3404 7.81824C46.6678 7.50791 46.8315 7.0809 46.8315 6.53803V6.3938H44.9818C44.6332 6.3938 44.3506 6.47239 44.1334 6.6304C43.9169 6.78759 43.8083 7.01527 43.8083 7.31264C43.8083 7.61 43.9208 7.8466 44.146 8.02162C44.3711 8.19663 44.6749 8.28414 45.0582 8.28414H45.059Z" fill="white"/>
<path d="M32.1431 10.3317H25.3906L27.3859 6.22452C26.4201 5.88016 25.7244 4.93458 25.7244 3.82452C25.7244 2.42439 26.831 1.28516 28.1911 1.28516H34.9436L32.9483 5.39238C33.9141 5.73674 34.6099 6.68232 34.6099 7.79319C34.6099 9.19333 33.5032 10.3326 32.1431 10.3326V10.3317ZM27.1356 9.22168H32.1431C32.909 9.22168 33.5316 8.58077 33.5316 7.79238C33.5316 7.00399 32.909 6.36308 32.1431 6.36308H31.271L33.1986 2.39441H28.1911C27.4253 2.39441 26.8027 3.03532 26.8027 3.82371C26.8027 4.6121 27.4253 5.25302 28.1911 5.25302H29.0632L27.1356 9.22168Z" fill="white"/>
</g>
<defs>
<clipPath id="clip0_3004_24685">
<rect width="49" height="12" fill="white"/>
</clipPath>
</defs>
</svg>
