<svg width="10" height="11" viewBox="0 0 10 11" fill="none" xmlns="http://www.w3.org/2000/svg">
<g clip-path="url(#clip0_3066_31753)">
<path d="M10 1.09682V6.02475C10 6.4863 9.80926 6.92764 9.46985 7.25119L5.93038 10.6314C5.41528 11.1227 4.58549 11.1227 4.06987 10.6314L0.530154 7.25095C0.190743 6.9274 0 6.48605 0 6.02451V1.09682C0 0.491118 0.508224 0 1.13502 0H8.86523C9.49203 0 10.0003 0.491118 10.0003 1.09682H10Z" fill="white"/>
<path d="M1.57252 2.28121C1.57252 1.52716 2.20697 0.914062 2.98678 0.914062H8.08737L6.1241 4.70895H7.01279C7.79259 4.70895 8.42704 5.32205 8.42704 6.0756C8.42704 6.82916 7.79259 7.44275 7.01279 7.44275H1.91193L3.87521 3.64786H2.98652C2.20672 3.64786 1.57227 3.03476 1.57227 2.28121H1.57252Z" fill="black"/>
</g>
<defs>
<clipPath id="clip0_3066_31753">
<rect width="10" height="11" fill="white"/>
</clipPath>
</defs>
</svg>
